<svg xmlns:xlink="http://www.w3.org/1999/xlink" xmlns="http://www.w3.org/2000/svg" width="35" height="35" viewBox="0 0 56 56" fill="none">
<path d="M30.3 54H6.15C5.845 54 5.55249 53.8809 5.33683 53.6689C5.12116 53.4569 5 53.1694 5 52.8696V22.3478C5 21.7482 5.24232 21.1731 5.67365 20.7491C6.10499 20.3251 6.69 20.0869 7.3 20.0869H28C28.61 20.0869 29.195 20.3251 29.6263 20.7491C30.0577 21.1731 30.3 21.7482 30.3 22.3478V54Z" stroke="#5E30E2" stroke-width="2" stroke-linecap="round" stroke-linejoin="round"/>
<path d="M25.6992 20.087V4.26087C25.6992 3.66125 25.9415 3.08619 26.3729 2.66219C26.8042 2.2382 27.3892 2 27.9992 2H48.6992C49.3092 2 49.8942 2.2382 50.3256 2.66219C50.7569 3.08619 50.9992 3.66125 50.9992 4.26087V52.8696C50.9992 53.1694 50.8781 53.4569 50.6624 53.6689C50.4467 53.8809 50.1542 54 49.8492 54H30.2992" stroke="#5E30E2" stroke-width="2" stroke-linecap="round" stroke-linejoin="round"/>
<path d="M44.0992 54V48.3478C44.0992 48.048 43.9781 47.7605 43.7624 47.5485C43.5467 47.3365 43.2542 47.2174 42.9492 47.2174H38.3492C38.0442 47.2174 37.7517 47.3365 37.536 47.5485C37.3204 47.7605 37.1992 48.048 37.1992 48.3478V54" stroke="#5E30E2" stroke-width="2" stroke-linecap="round" stroke-linejoin="round"/>
<path d="M21.0992 54V48.3478C21.0992 48.048 20.9781 47.7605 20.7624 47.5485C20.5467 47.3365 20.2542 47.2174 19.9492 47.2174H15.3492C15.0442 47.2174 14.7517 47.3365 14.536 47.5485C14.3204 47.7605 14.1992 48.048 14.1992 48.3478V54" stroke="#5E30E2" stroke-width="2" stroke-linecap="round" stroke-linejoin="round"/>
<path d="M7.30078 26.8696H16.5008" stroke="#5E30E2" stroke-width="2" stroke-linecap="round" stroke-linejoin="round"/>
<path d="M25.6992 15.5652H34.8992" stroke="#5E30E2" stroke-width="2" stroke-linecap="round" stroke-linejoin="round"/>
<path d="M25.6992 8.78262H39.4992" stroke="#5E30E2" stroke-width="2" stroke-linecap="round" stroke-linejoin="round"/>
<path d="M7.30078 33.6522H11.9008" stroke="#5E30E2" stroke-width="2" stroke-linecap="round" stroke-linejoin="round"/>
</svg>