<svg xmlns:xlink="http://www.w3.org/1999/xlink" xmlns="http://www.w3.org/2000/svg" _ngcontent-serverApp-c43="" class="icon" width="24"  height="20" ><defs><symbol viewBox="0 0 24 20" id="icon-bed" xmlns="http://www.w3.org/2000/svg">
    <path d="M23.25 19.75C22.836 19.75 22.5 19.414 22.5 19V16.75H1.5V19C1.5 19.414 1.164 19.75 0.75 19.75C0.336 19.75 0 19.414 0 19V11.25C0 9.909 0.963 8.784 2.25 8.548V2.5C2.25 1.259 3.259 0.25 4.5 0.25H19.5C20.741 0.25 21.75 1.259 21.75 2.5V8.548C23.037 8.784 24 9.909 24 11.25V19C24 19.414 23.664 19.75 23.25 19.75ZM22.5 15.25V11.25C22.5 10.561 21.939 10 21.25 10H2.75C2.061 10 1.5 10.561 1.5 11.25V15.25H22.5ZM20.25 8.5V7C20.25 6.586 19.914 6.25 19.5 6.25H13.5C13.086 6.25 12.75 6.586 12.75 7V8.5H20.25ZM11.25 8.5V7C11.25 6.586 10.914 6.25 10.5 6.25H4.5C4.086 6.25 3.75 6.586 3.75 7V8.5H11.25ZM10.5 4.75C11.063 4.75 11.591 4.956 12 5.325C12.409 4.955 12.937 4.75 13.5 4.75H19.5C19.759 4.75 20.011 4.794 20.25 4.879V2.5C20.25 2.086 19.914 1.75 19.5 1.75H4.5C4.086 1.75 3.75 2.086 3.75 2.5V4.879C3.989 4.794 4.241 4.75 4.5 4.75H10.5Z" fill="#778997"></path>
  </symbol></defs><use _ngcontent-serverApp-c43="" xlink:href="#icon-bed" fill="#515B62"></use></svg>