<svg xmlns:xlink="http://www.w3.org/1999/xlink" xmlns="http://www.w3.org/2000/svg" _ngcontent-serverApp-c43="" class="icon" width="24"  height="24" ><defs><symbol viewBox="0 0 24 24" id="icon-footage" xmlns="http://www.w3.org/2000/svg">
    <path d="M12.75 22.5C11.509 22.5 10.5 21.491 10.5 20.25V17.25C10.5 16.836 10.836 16.5 11.25 16.5C11.664 16.5 12 16.836 12 17.25V20.25C12 20.664 12.336 21 12.75 21H18.75C19.164 21 19.5 20.664 19.5 20.25V17.25C19.5 16.836 19.836 16.5 20.25 16.5C20.664 16.5 21 16.836 21 17.25V20.25C21 21.491 19.991 22.5 18.75 22.5H12.75Z" fill="#778997"></path>
    <path d="M8.24998 16.5C8.03798 16.5 7.83497 16.41 7.69297 16.252C7.41597 15.944 7.44098 15.469 7.74898 15.193L14.246 9.34298C14.661 8.96998 15.195 8.76398 15.751 8.76398C16.307 8.76398 16.841 8.96898 17.256 9.34198L21 12.715V10.5C21 10.086 21.336 9.74998 21.75 9.74998C22.164 9.74998 22.5 10.086 22.5 10.5V14.065L23.752 15.192C23.901 15.326 23.989 15.51 23.999 15.71C24.009 15.91 23.941 16.102 23.807 16.251C23.665 16.408 23.462 16.499 23.25 16.499C23.064 16.499 22.886 16.43 22.748 16.306L16.251 10.456C16.113 10.332 15.935 10.263 15.75 10.263C15.565 10.263 15.387 10.332 15.249 10.456L8.75197 16.305C8.61397 16.432 8.43598 16.5 8.24998 16.5Z" fill="#778997"></path>
    <path d="M1.5 24C0.673 24 0 23.327 0 22.5V1.5C0 0.673 0.673 0 1.5 0H22.5C23.327 0 24 0.673 24 1.5V4.5C24 5.327 23.327 6 22.5 6H6V22.5C6 23.327 5.327 24 4.5 24H1.5ZM1.5 22.5H4.5V18H3.75C3.336 18 3 17.664 3 17.25C3 16.836 3.336 16.5 3.75 16.5H4.5V12H3.75C3.336 12 3 11.664 3 11.25C3 10.836 3.336 10.5 3.75 10.5H4.5V6H1.5V22.5ZM22.5 4.5V1.5H6V4.5H10.5V3.75C10.5 3.336 10.836 3 11.25 3C11.664 3 12 3.336 12 3.75V4.5H16.5V3.75C16.5 3.336 16.836 3 17.25 3C17.664 3 18 3.336 18 3.75V4.5H22.5ZM4.5 4.5V1.5H1.5V4.5H4.5Z" fill="#778997"></path>
  </symbol></defs><use _ngcontent-serverApp-c43="" xlink:href="#icon-footage" fill="#515B62"></use></svg>