<svg xmlns:xlink="http://www.w3.org/1999/xlink" _ngcontent-acs-c49="" xmlns="http://www.w3.org/2000/svg" width="32" height="26" fill="none" xmlns:v="https://vecta.io/nano" class="stroke"><path _ngcontent-acs-c49="" d="M13.921 1.99c-.342-.314-.748-.563-1.195-.733S11.799 1 11.315 1s-.963.087-1.41.257a3.72 3.72 0 0 0-1.195.733L8 2.641l-.71-.651A3.86 3.86 0 0 0 4.685 1a3.86 3.86 0 0 0-2.605.99C1.388 2.624 1 3.484 1 4.38s.388 1.756 1.079 2.39l.71.651L8 12.2l5.211-4.779.71-.651c.342-.314.614-.686.799-1.096S15 4.824 15 4.38s-.095-.883-.281-1.293-.457-.783-.799-1.096h0z" stroke="#DD3D22" stroke-linejoin="round" fill="none"></path></svg>