<?xml version="1.0" encoding="UTF-8"?>
<!DOCTYPE svg PUBLIC "-//W3C//DTD SVG 1.1//EN" "http://www.w3.org/Graphics/SVG/1.1/DTD/svg11.dtd">
<svg xmlns="http://www.w3.org/2000/svg" version="1.1" width="50px" height="50px" style="shape-rendering:geometricPrecision; text-rendering:geometricPrecision; image-rendering:optimizeQuality; fill-rule:evenodd; clip-rule:evenodd" xmlns:xlink="http://www.w3.org/1999/xlink">
<g><path style="opacity:0.763" fill="#3d3938" d="M -0.5,-0.5 C 16.1667,-0.5 32.8333,-0.5 49.5,-0.5C 49.5,3.83333 49.5,8.16667 49.5,12.5C 43.6914,15.907 38.0248,19.5737 32.5,23.5C 31.6694,29.8072 31.1694,36.1406 31,42.5C 28.0042,44.7326 25.1708,47.0659 22.5,49.5C 20.8333,49.5 19.1667,49.5 17.5,49.5C 17.8314,40.8078 17.498,32.1411 16.5,23.5C 10.9752,19.5737 5.30856,15.907 -0.5,12.5C -0.5,8.16667 -0.5,3.83333 -0.5,-0.5 Z M 3.5,3.5 C 17.5,3.5 31.5,3.5 45.5,3.5C 45.6621,5.5273 45.4955,7.5273 45,9.5C 39.3333,13.5 33.6667,17.5 28,21.5C 27.6667,27.8333 27.3333,34.1667 27,40.5C 25.414,41.376 23.914,42.376 22.5,43.5C 21.6687,36.1892 21.1687,28.8559 21,21.5C 15.3333,17.5 9.66667,13.5 4,9.5C 3.50454,7.5273 3.33788,5.5273 3.5,3.5 Z"/></g>
</svg>
