<svg width="20" height="20" viewBox="0 0 20 20" fill="none" xmlns="http://www.w3.org/2000/svg">
<path d="M18.1711 8.368H17.4998V8.33342H9.99984V11.6667H14.7094C14.0223 13.6072 12.1761 15.0001 9.99984 15.0001C7.23859 15.0001 4.99984 12.7613 4.99984 10.0001C4.99984 7.23883 7.23859 5.00008 9.99984 5.00008C11.2744 5.00008 12.434 5.48091 13.3169 6.26633L15.674 3.90925C14.1857 2.52216 12.1948 1.66675 9.99984 1.66675C5.39775 1.66675 1.6665 5.398 1.6665 10.0001C1.6665 14.6022 5.39775 18.3334 9.99984 18.3334C14.6019 18.3334 18.3332 14.6022 18.3332 10.0001C18.3332 9.44133 18.2757 8.89592 18.1711 8.368Z" fill="#FFC107"/>
<path d="M2.62744 6.12133L5.36536 8.12925C6.10619 6.29508 7.90036 5.00008 9.99994 5.00008C11.2745 5.00008 12.4341 5.48091 13.317 6.26633L15.6741 3.90925C14.1858 2.52216 12.1949 1.66675 9.99994 1.66675C6.79911 1.66675 4.02327 3.47383 2.62744 6.12133Z" fill="#FF3D00"/>
<path d="M9.9998 18.3334C12.1523 18.3334 14.1081 17.5096 15.5869 16.17L13.0077 13.9875C12.1429 14.6452 11.0862 15.0009 9.9998 15C7.8323 15 5.99189 13.618 5.29855 11.6892L2.58105 13.783C3.96022 16.4817 6.76105 18.3334 9.9998 18.3334Z" fill="#4CAF50"/>
<path d="M18.1713 8.36784H17.5V8.33325H10V11.6666H14.7096C14.3809 12.5901 13.7889 13.3971 13.0067 13.9878L13.0079 13.987L15.5871 16.1695C15.4046 16.3353 18.3333 14.1666 18.3333 9.99992C18.3333 9.44117 18.2758 8.89575 18.1713 8.36784Z" fill="#1976D2"/>
</svg>
