<svg width="20" height="20" viewBox="0 0 20 20" fill="none" xmlns="http://www.w3.org/2000/svg">
<path d="M1 8.5L10 1.5L19 8.5" stroke="#717375" stroke-width="2" stroke-linecap="round" stroke-linejoin="round"/>
<path d="M3 7L2.39396 6.20456C2.14571 6.39371 2 6.6879 2 7H3ZM3 18H2C2 18.5523 2.44772 19 3 19V18ZM17 18V19C17.5523 19 18 18.5523 18 18H17ZM17 7H18C18 6.6879 17.8543 6.3937 17.606 6.20456L17 7ZM9.99999 1.66675L10.606 0.871312C10.248 0.59856 9.75195 0.59856 9.39396 0.871312L9.99999 1.66675ZM7 18V19C7.55228 19 8 18.5523 8 18H7ZM13 18H12C12 18.5523 12.4477 19 13 19V18ZM2 7V18H4V7H2ZM18 18V7H16V18H18ZM3.60604 7.79544L10.606 2.46218L9.39396 0.871312L2.39396 6.20456L3.60604 7.79544ZM9.39396 2.46218L16.394 7.79544L17.606 6.20456L10.606 0.871312L9.39396 2.46218ZM3 19H7V17H3V19ZM13 19H17V17H13V19ZM8 18V12.5H6V18H8ZM8.5 12H11.5V10H8.5V12ZM12 12.5V18H14V12.5H12ZM11.5 12C11.7761 12 12 12.2239 12 12.5H14C14 11.1193 12.8807 10 11.5 10V12ZM8 12.5C8 12.2239 8.22386 12 8.5 12V10C7.11929 10 6 11.1193 6 12.5H8Z" fill="#717375"/>
</svg>
