<svg xmlns:xlink="http://www.w3.org/1999/xlink"   viewBox="0 0 24 24" fill="none" xmlns="http://www.w3.org/2000/svg" font-size="16px" width="20"  height="20" ><path fill-rule="evenodd" clip-rule="evenodd" d="M2.25 12C2.25 6.61522 6.61522 2.25 12 2.25C17.3848 2.25 21.75 6.61522 21.75 12C21.75 17.3848 17.3848 21.75 12 21.75C6.61522 21.75 2.25 17.3848 2.25 12ZM12 7.75C10.8917 7.75 9.96738 8.47508 9.72413 9.3771C9.61628 9.77702 9.20465 10.0138 8.80472 9.90595C8.40479 9.7981 8.16802 9.38647 8.27587 8.98654C8.70934 7.37913 10.2678 6.25 12 6.25C14.0801 6.25 15.75 7.87091 15.75 9.90909C15.75 11.3648 14.6776 12.0945 13.9756 12.5722C13.9577 12.5844 13.9399 12.5964 13.9225 12.6083C13.0988 13.1699 12.75 13.4581 12.75 14C12.75 14.4142 12.4142 14.75 12 14.75C11.5858 14.75 11.25 14.4142 11.25 14C11.25 12.6066 12.3013 11.8947 12.9848 11.4319C13.0165 11.4104 13.0475 11.3894 13.0775 11.369C13.8779 10.8232 14.25 10.5071 14.25 9.90909C14.25 8.73398 13.2867 7.75 12 7.75ZM12 16.24C12.4142 16.24 12.75 16.5758 12.75 16.99V17C12.75 17.4142 12.4142 17.75 12 17.75C11.5858 17.75 11.25 17.4142 11.25 17V16.99C11.25 16.5758 11.5858 16.24 12 16.24Z" fill="#999999"></path></svg>