<svg xmlns:xlink="http://www.w3.org/1999/xlink" xmlns="http://www.w3.org/2000/svg" id="icon-ref" viewBox="0 0 24 22" class="inherit-size" width="24"  height="22" >
<path d="M1.728 21.873C0.781 21.873 0.007 21.104 0 20.158V5.59399C0.006 4.64399 0.781 3.87299 1.727 3.87299H3V3.12299C3 1.46899 4.346 0.122986 6 0.122986C7.654 0.122986 9 1.46899 9 3.12299V9.87299C9 11.114 7.991 12.123 6.75 12.123C5.509 12.123 4.5 11.114 4.5 9.87299V7.62299C4.5 7.20899 4.836 6.87299 5.25 6.87299C5.664 6.87299 6 7.20899 6 7.62299V9.87299C6 10.287 6.336 10.623 6.75 10.623C7.164 10.623 7.5 10.287 7.5 9.87299V3.12299C7.5 2.29599 6.827 1.62299 6 1.62299C5.173 1.62299 4.5 2.29599 4.5 3.12299V3.87299H5.25C5.664 3.87299 6 4.20899 6 4.62299C6 5.03699 5.664 5.37299 5.25 5.37299H1.728C1.603 5.37299 1.501 5.47399 1.5 5.59899V20.153C1.501 20.271 1.605 20.373 1.727 20.373H22.272C22.397 20.373 22.499 20.272 22.5 20.148V5.59399C22.499 5.47499 22.395 5.37299 22.273 5.37299H11.25C10.836 5.37299 10.5 5.03699 10.5 4.62299C10.5 4.20899 10.836 3.87299 11.25 3.87299H22.272C23.22 3.87299 23.994 4.64299 24 5.58899V20.153C23.993 21.103 23.219 21.873 22.273 21.873H1.728Z" fill="#778997"></path>
<path d="M12 12.123C11.586 12.123 11.25 11.787 11.25 11.373C11.25 10.959 11.586 10.623 12 10.623H20.25C20.664 10.623 21 10.959 21 11.373C21 11.787 20.664 12.123 20.25 12.123H12Z" fill="#778997"></path>
<path d="M6.75 16.623C6.336 16.623 6 16.287 6 15.873C6 15.459 6.336 15.123 6.75 15.123H20.25C20.664 15.123 21 15.459 21 15.873C21 16.287 20.664 16.623 20.25 16.623H6.75Z" fill="#778997"></path>
</svg>