<svg xmlns:xlink="http://www.w3.org/1999/xlink" xmlns="http://www.w3.org/2000/svg" width="16" height="17" viewBox="0 0 16 17" fill="none">
<path d="M6.82476 1.2868C7.52553 0.777984 8.47416 0.777984 9.17493 1.2868L10.9563 2.5802C11.0567 2.65311 11.1637 2.71651 11.2758 2.76959L13.3024 3.7287C14.06 4.08725 14.5137 4.88018 14.4389 5.71501L14.2306 8.03884C14.2199 8.15763 14.2199 8.27713 14.2306 8.39592L14.4389 10.7197C14.5137 11.5546 14.06 12.3475 13.3024 12.7061L11.2758 13.6652C11.1637 13.7182 11.0567 13.7816 10.9563 13.8546L9.17493 15.148C8.47416 15.6568 7.52553 15.6568 6.82476 15.148L5.04341 13.8546C4.94301 13.7816 4.83604 13.7182 4.72388 13.6652L2.69729 12.7061C1.93967 12.3475 1.486 11.5546 1.56083 10.7197L1.76911 8.39592C1.77975 8.27713 1.77975 8.15763 1.76911 8.03884L1.56083 5.71501C1.486 4.88018 1.93967 4.08725 2.69729 3.7287L4.72388 2.76959C4.83604 2.71651 4.94301 2.65311 5.04341 2.5802L6.82476 1.2868Z" stroke="#515B62"/>
<path d="M11.1576 10.8107C10.5502 10.5151 9.73076 10.1294 9.1212 9.88101C8.61901 9.675 8.6906 8.74232 8.98128 8.39181C9.23283 8.12025 9.42502 7.78928 9.54331 7.42391C9.66159 7.05854 9.66405 6.28282 9.66405 6.28282C9.66405 6.28282 9.65816 5.77593 9.58369 5.53608C9.50922 5.29624 9.38936 5.07652 9.23205 4.89146C9.07473 4.7064 8.88354 4.5602 8.6711 4.46254C8.45866 4.36487 8.22982 4.31795 7.99969 4.32489C7.76956 4.31795 7.54072 4.36487 7.32828 4.46254C7.11584 4.5602 6.92465 4.7064 6.76733 4.89146C6.61002 5.07652 6.49017 5.29624 6.4157 5.53608C6.34123 5.77593 6.33533 6.28282 6.33533 6.28282C6.33533 6.28282 6.33779 7.05854 6.45608 7.42391C6.57436 7.78928 6.76655 8.12025 7.0181 8.39181C7.30878 8.74232 7.38037 9.675 6.87819 9.88101C6.26591 10.1306 5.44377 10.5181 4.8418 10.8107" stroke="#515B62" stroke-linecap="round" stroke-linejoin="round"/>
</svg>