<svg xmlns:xlink="http://www.w3.org/1999/xlink" xmlns="http://www.w3.org/2000/svg" id="icon-permit" viewBox="0 0 22 24" class="inherit-size" width="22"  height="24" >
<path d="M11 24.001C10.539 24.001 10.086 23.917 9.65401 23.751L8.61301 23.351C3.76001 21.484 0.500006 16.737 0.500006 11.538V3.924C0.495006 3.048 1.00801 2.245 1.80601 1.88C4.66601 0.631 7.68601 0 10.788 0L11.007 0.001L11.193 0C14.308 0 17.333 0.631 20.182 1.875C20.991 2.245 21.506 3.05 21.5 3.929V11.538C21.5 16.737 18.24 21.484 13.387 23.351L12.346 23.751C11.914 23.917 11.461 24.001 11 24.001ZM10.8 1.5C7.89701 1.5 5.07701 2.089 2.41801 3.249C2.16501 3.365 1.99801 3.629 2.00001 3.919V11.538C2.00001 16.121 4.87401 20.306 9.15101 21.951L10.192 22.351C10.452 22.451 10.723 22.502 11 22.502C11.277 22.502 11.548 22.451 11.808 22.352L12.849 21.952C17.126 20.305 20 16.121 20 11.538V3.924C20.002 3.631 19.833 3.365 19.57 3.244C16.921 2.087 14.101 1.5 11.194 1.5L11.007 1.501L10.8 1.5Z" fill="#778997"></path>
<path d="M11.016 16.502C10.728 16.502 10.435 16.481 10.147 16.439C8.56101 16.21 7.15901 15.377 6.19901 14.094C5.23901 12.81 4.83701 11.23 5.06601 9.64398C5.48801 6.71398 8.03901 4.50298 11 4.50098C11.413 4.50098 11.75 4.83698 11.75 5.24998C11.75 5.44998 11.672 5.63898 11.531 5.78098C11.389 5.92298 11.201 6.00098 11.001 6.00098C8.78101 6.00198 6.86701 7.65998 6.55001 9.85798C6.37801 11.048 6.68001 12.233 7.40001 13.196C8.12001 14.159 9.17201 14.783 10.361 14.955C10.577 14.986 10.796 15.002 11.012 15.002C11.985 15.002 12.914 14.692 13.698 14.105C14.661 13.385 15.285 12.334 15.457 11.144C15.511 10.777 15.83 10.5 16.2 10.5C16.235 10.5 16.271 10.503 16.307 10.508C16.716 10.567 17.001 10.948 16.942 11.357C16.713 12.943 15.88 14.346 14.597 15.305C13.551 16.088 12.312 16.502 11.016 16.502Z" fill="#778997"></path>
<path d="M11 12.289C10.624 12.289 10.272 12.143 10.006 11.879L8.504 10.373C8.213 10.08 8.214 9.60399 8.506 9.31199C8.648 9.17099 8.836 9.09299 9.036 9.09299C9.237 9.09299 9.426 9.17099 9.567 9.31299L11 10.752L15.72 6.03299C15.862 5.89099 16.05 5.81299 16.25 5.81299C16.45 5.81299 16.639 5.89099 16.78 6.03299C16.922 6.17399 17 6.36199 17 6.56299C17 6.76399 16.922 6.95199 16.78 7.09299L11.994 11.879C11.729 12.144 11.376 12.289 11 12.289Z" fill="#778997"></path>
</svg>