<svg xmlns:xlink="http://www.w3.org/1999/xlink" xmlns="http://www.w3.org/2000/svg" _ngcontent-serverApp-c90="" class="icon" width="28"  height="30" ><defs><symbol viewBox="0 0 14 15" id="icon-alerts" xmlns="http://www.w3.org/2000/svg">
    <path fill-rule="evenodd" d="M7 .834a.5.5 0 01.5.5v1.52a5.833 5.833 0 015.333 5.813V12a.5.5 0 00.5.5.5.5 0 010 1H8.87a2.512 2.512 0 01-.58.936C7.928 14.801 7.472 15 7 15c-.47 0-.927-.2-1.292-.564a2.512 2.512 0 01-.58-.936H.667a.5.5 0 110-1 .5.5 0 00.5-.5V8.667A5.833 5.833 0 016.5 2.855V1.334a.5.5 0 01.5-.5zM6.233 13.5c.056.087.117.164.183.23.196.196.405.27.584.27.18 0 .388-.074.584-.27a1.38 1.38 0 00.183-.23H6.233zM7 3.834h-.024a4.833 4.833 0 00-4.81 4.833V12c0 .172-.03.34-.086.5h9.838a1.498 1.498 0 01-.085-.5V8.667A4.833 4.833 0 007 3.834z"></path>
  </symbol></defs><use _ngcontent-serverApp-c90="" xlink:href="#icon-alerts" fill="#778997"></use></svg>