<svg xmlns="http://www.w3.org/2000/svg" width="24" height="24" viewBox="0 0 24 24" fill="none">
    <path d="M2.3354 13.0646C2.11709 12.7525 2 12.3808 2 11.9999C2 11.619 2.11709 11.2473 2.3354 10.9352C3.7511 8.93093 7.2368 4.79993 11.8997 4.79993C16.5626 4.79993 20.0483 8.93093 21.464 10.9352C21.6823 11.2473 21.7994 11.619 21.7994 11.9999C21.7994 12.3808 21.6823 12.7525 21.464 13.0646C20.0483 15.0689 16.5626 19.1999 11.8997 19.1999C7.2368 19.1999 3.7511 15.0689 2.3354 13.0646Z" stroke="#454749" stroke-width="2" stroke-miterlimit="10" stroke-linecap="round" stroke-linejoin="round"/><path d="M11.8997 15.5999C13.8879 15.5999 15.4997 13.9881 15.4997 11.9999C15.4997 10.0117 13.8879 8.3999 11.8997 8.3999C9.91147 8.3999 8.2997 10.0117 8.2997 11.9999C8.2997 13.9881 9.91147 15.5999 11.8997 15.5999Z" stroke="#454749" stroke-width="2" stroke-miterlimit="10" stroke-linecap="round" stroke-linejoin="round"/></svg>