<svg xmlns:xlink="http://www.w3.org/1999/xlink" xmlns="http://www.w3.org/2000/svg" _ngcontent-serverApp-c43="" class="icon" width="24"  height="24" ><defs><symbol viewBox="0 0 24 24" id="icon-bathroom" xmlns="http://www.w3.org/2000/svg">
    <path d="M7.332 24C4.018 24 1.218 21.628 0.674003 18.359L0.0100032 14.373C-0.0259968 14.156 0.0350032 13.934 0.177003 13.765C0.321003 13.596 0.529003 13.5 0.750003 13.5H4.629C4.942 12.615 5.79 12 6.75 12H11.25C12.21 12 13.058 12.615 13.371 13.5H21V3.75C21 2.509 19.991 1.5 18.75 1.5C17.751 1.5 16.881 2.167 16.599 3.099C18.278 3.488 19.5 4.991 19.5 6.75C19.5 7.164 19.164 7.5 18.75 7.5H12.75C12.336 7.5 12 7.164 12 6.75C12 4.925 13.298 3.389 15.063 3.063C15.388 1.298 16.924 0 18.75 0C20.818 0 22.5 1.682 22.5 3.75V13.5H23.25C23.471 13.5 23.679 13.596 23.822 13.765C23.965 13.934 24.026 14.155 23.99 14.373L23.326 18.359C22.781 21.628 19.981 24 16.667 24H7.332ZM2.154 18.113C2.577 20.655 4.755 22.5 7.332 22.5H16.666C19.244 22.5 21.422 20.655 21.845 18.113L22.365 15H13.5V19.5C13.5 20.327 12.827 21 12 21H6C5.173 21 4.5 20.327 4.5 19.5V15H1.635L2.154 18.113ZM6.75 13.5C6.336 13.5 6 13.836 6 14.25V19.5H12V14.25C12 13.836 11.664 13.5 11.25 13.5H6.75ZM17.871 6C17.558 5.121 16.712 4.5 15.75 4.5C14.788 4.5 13.941 5.121 13.629 6H17.871Z" fill="#778997"></path>
  </symbol></defs><use _ngcontent-serverApp-c43="" xlink:href="#icon-bathroom" fill="#515B62"></use></svg>