<svg xmlns:xlink="http://www.w3.org/1999/xlink" xmlns="http://www.w3.org/2000/svg" _ngcontent-serverApp-c102="" class="icon" width="42"  height="42" ><defs><symbol viewBox="0 0 22 22" id="icon-phone" xmlns="http://www.w3.org/2000/svg">
    <path d="M12.842.832a10.333 10.333 0 016.684 16.009.75.75 0 11-1.238-.848A8.834 8.834 0 1011 19.833c2.516 0 3.851-.665 4.34-1.704.116-.246.174-.527.197-.785a2.694 2.694 0 01-.873.29 2.756 2.756 0 01-1.796-.347A26.287 26.287 0 014.701 9.11a2.736 2.736 0 01.491-3.341l.887-.886a2.04 2.04 0 011.28-.542l.179-.001a2.07 2.07 0 011.318.547l1.322 1.32c.359.402.544.93.516 1.468a2.006 2.006 0 01-.637 1.374l.353.408a25.3 25.3 0 002.138 2.14l.408.352.095-.096a2.04 2.04 0 011.101-.522l.178-.017a2.062 2.062 0 011.498.545l1.319 1.32c.36.402.546.93.518 1.47a2.016 2.016 0 01-.641 1.38l-.121.12c.225.73.192 1.775-.205 2.62-.766 1.627-2.65 2.565-5.698 2.565a10.333 10.333 0 111.842-20.5zM7.438 5.838l-.085.012a.599.599 0 00-.314.193l-.805.804a1.236 1.236 0 00-.248 1.489 24.736 24.736 0 007.655 7.666 1.236 1.236 0 001.535-.248l.814-.812a.54.54 0 00.177-.373.532.532 0 00-.11-.36l-1.26-1.261a.541.541 0 00-.388-.138.571.571 0 00-.398.204l-.48.478a.75.75 0 01-1 .054A26.8 26.8 0 018.46 9.47a.75.75 0 01.055-1.001l.504-.501a.542.542 0 00.177-.373.534.534 0 00-.108-.358L7.826 5.975a.54.54 0 00-.388-.137z"></path>
  </symbol></defs><use _ngcontent-serverApp-c102="" xlink:href="#icon-phone" fill="#fefefe"></use></svg>