<svg xmlns:xlink="http://www.w3.org/1999/xlink" xmlns="http://www.w3.org/2000/svg" _ngcontent-serverApp-c87="" class="icon" width="78"  height="78" ><defs><symbol viewBox="0 0 18 18" id="icon-settings" xmlns="http://www.w3.org/2000/svg">
    <path d="M9.334.833A1.167 1.167 0 0110.501 2L10.5 3.102l.31.084c.35.103.694.23 1.032.379l.812-.81c.187-.188.432-.305.693-.335l.132-.007c.309 0 .606.123.824.341l.946.943a1.167 1.167 0 010 1.65l-.812.81c.15.339.277.683.38 1.034l.083.309H16c.266 0 .522.09.727.254l.099.088c.218.219.341.515.341.825v.666a1.167 1.167 0 01-1.166 1.167H14.9l-.083.31a8.2 8.2 0 01-.382 1.035l.812.812c.187.188.304.432.334.693l.008.132c0 .31-.123.606-.342.825l-.943.943a1.167 1.167 0 01-1.65 0l-.812-.812c-.338.15-.682.277-1.032.38l-.31.083V16c0 .265-.09.521-.253.727l-.088.098a1.166 1.166 0 01-.825.342h-.667A1.166 1.166 0 017.501 16L7.5 14.898l-.309-.083a8.19 8.19 0 01-1.033-.381l-.811.813a1.167 1.167 0 01-.693.334l-.132.008c-.31 0-.606-.123-.824-.341l-.947-.944a1.167 1.167 0 010-1.65l.812-.812a8.321 8.321 0 01-.38-1.032L3.1 10.5H2.001a1.17 1.17 0 01-.727-.253l-.098-.088a1.167 1.167 0 01-.342-.825v-.667a1.167 1.167 0 011.167-1.166L3.102 7.5l.084-.308c.103-.351.23-.695.379-1.033l-.811-.811a1.167 1.167 0 01-.334-.694l-.008-.131c0-.31.123-.606.342-.825l.943-.944a1.167 1.167 0 011.65 0l.811.81a8.43 8.43 0 011.034-.38l.308-.083V2c0-.265.091-.521.255-.727l.087-.098c.22-.219.516-.342.825-.342zm0 1h-.667A.167.167 0 008.501 2v1.5a.5.5 0 01-.402.49 7.352 7.352 0 00-1.823.624.5.5 0 01-.576-.094L4.64 3.462a.167.167 0 00-.236 0l-.943.943a.167.167 0 000 .235L4.52 5.7a.5.5 0 01.094.576 7.38 7.38 0 00-.624 1.823.5.5 0 01-.49.402H2a.167.167 0 00-.167.166v.667A.167.167 0 002 9.501h1.497a.5.5 0 01.49.4 7.38 7.38 0 00.624 1.825.5.5 0 01-.094.576l-1.06 1.06a.167.167 0 000 .235l.946.943a.167.167 0 00.236 0l1.059-1.06a.5.5 0 01.576-.094 7.366 7.366 0 001.824.624.5.5 0 01.402.49V16a.167.167 0 00.166.167h.667A.166.166 0 009.501 16v-1.497a.5.5 0 01.4-.49 7.37 7.37 0 001.824-.624.5.5 0 01.576.094l1.06 1.06a.166.166 0 00.236 0l.943-.943a.167.167 0 000-.236l-1.06-1.06a.5.5 0 01-.094-.576 7.38 7.38 0 00.627-1.827.5.5 0 01.49-.401h1.498a.167.167 0 00.166-.167v-.666a.167.167 0 00-.166-.167h-1.498a.5.5 0 01-.49-.401 7.37 7.37 0 00-.625-1.825.5.5 0 01.095-.576l1.059-1.058a.167.167 0 000-.235l-.946-.943a.167.167 0 00-.235 0L12.3 4.52a.5.5 0 01-.576.094 7.346 7.346 0 00-1.823-.624.5.5 0 01-.401-.49V2a.167.167 0 00-.167-.167zM9 5.501a3.5 3.5 0 110 7 3.5 3.5 0 010-7zm0 1a2.5 2.5 0 100 5 2.5 2.5 0 000-5z"></path>
  </symbol></defs><use _ngcontent-serverApp-c87="" xlink:href="#icon-settings" fill="#778997"></use></svg>